<?xml version="1.0" standalone="no"?>
<!DOCTYPE svg PUBLIC "-//W3C//DTD SVG 20010904//EN"
 "http://www.w3.org/TR/2001/REC-SVG-20010904/DTD/svg10.dtd">
<svg version="1.0" xmlns="http://www.w3.org/2000/svg"
 width="400.000000pt" height="400.000000pt" viewBox="0 0 400.000000 400.000000"
 preserveAspectRatio="xMidYMid meet">
<metadata>
Created by potrace 1.11, written by Peter Selinger 2001-2013
</metadata>
<g transform="translate(0.000000,400.000000) scale(0.100000,-0.100000)"
fill="#000000" stroke="none">
<path d="M1840 3985 c-304 -61 -540 -275 -641 -580 -22 -68 -23 -84 -27 -456
-3 -365 -2 -392 18 -475 58 -244 219 -444 445 -554 125 -61 227 -84 365 -84
138 0 240 23 365 84 226 110 387 310 445 554 20 83 21 110 18 475 -4 372 -5
388 -27 456 -104 313 -349 529 -665 584 -79 14 -215 12 -296 -4z m324 -175
c119 -30 209 -82 301 -175 133 -133 192 -271 202 -479 l6 -118 -24 7 c-13 4
-202 73 -419 152 -217 79 -402 142 -412 139 -9 -2 -117 -76 -241 -165 -124
-88 -231 -161 -238 -161 -21 0 -5 250 21 335 72 232 249 406 472 465 99 26
232 26 332 0z m82 -800 c213 -78 395 -145 406 -151 16 -9 18 -23 18 -117 -1
-192 -35 -318 -121 -447 -65 -97 -144 -166 -254 -221 -143 -71 -281 -90 -430
-59 -92 19 -236 92 -307 155 -67 60 -147 175 -178 257 -29 77 -49 191 -50 284
l0 75 253 182 c138 99 258 181 264 181 7 1 187 -62 399 -139z"/>
<path d="M1285 1561 c-38 -11 -92 -29 -119 -40 -128 -56 -266 -177 -340 -299
-20 -34 -136 -316 -257 -629 -122 -312 -223 -574 -226 -580 -4 -10 331 -13
1657 -13 1326 0 1661 3 1657 13 -3 6 -104 268 -226 580 -121 313 -237 596
-257 630 -51 84 -173 205 -259 255 -38 22 -106 53 -150 69 l-80 28 -665 2
c-622 2 -670 1 -735 -16z m1395 -164 c139 -42 281 -147 347 -258 24 -41 383
-944 383 -965 0 -2 -90 -4 -201 -4 -110 0 -199 3 -197 8 63 123 63 123 63 238
0 107 -1 112 -37 186 -45 91 -103 147 -196 191 l-67 32 -288 5 -287 5 -250
283 c-138 156 -250 288 -250 293 0 7 163 9 463 6 392 -3 470 -6 517 -20z
m-1350 -282 l0 -285 -125 0 -125 0 0 -80 0 -80 125 0 125 0 0 -250 0 -250
-370 0 c-203 0 -370 2 -370 4 0 16 356 920 375 953 36 61 118 146 180 188 41
27 152 79 183 85 1 0 2 -128 2 -285z m670 -310 c228 -259 447 -507 488 -552
l74 -83 -531 0 -531 0 0 600 0 599 43 -47 c24 -26 230 -258 457 -517z m720
-146 c137 -31 224 -172 186 -302 -18 -61 -52 -110 -100 -144 l-34 -25 -35 39
c-162 180 -377 428 -377 435 0 12 307 9 360 -3z"/>
</g>
</svg>
